<?xml version="1.0" encoding="iso-8859-1"?>
<!-- Generator: Adobe Illustrator 16.0.0, SVG Export Plug-In . SVG Version: 6.00 Build 0)  -->
<!DOCTYPE svg PUBLIC "-//W3C//DTD SVG 1.1//EN" "http://www.w3.org/Graphics/SVG/1.1/DTD/svg11.dtd">
<svg version="1.1" id="Capa_1" xmlns="http://www.w3.org/2000/svg" xmlns:xlink="http://www.w3.org/1999/xlink" x="0px" y="0px"
	 width="97.126px" height="97.126px" viewBox="0 0 97.126 97.126" style="enable-background:new 0 0 97.126 97.126;"
	 xml:space="preserve">
<g>
	<g>
		<path d="M78.683,56.08c-3.735-6.055-13.433-10.234-25.939-11.183c-0.563-0.047-1.1,0.147-1.507,0.522
			c-0.272,0.252-0.581,0.602-0.924,0.998c-0.567,0.661-1.154,1.345-1.736,1.515h-0.001c-0.58-0.169-1.168-0.854-1.772-1.557
			c-0.315-0.364-0.621-0.712-0.895-0.962c-0.407-0.373-0.952-0.563-1.5-0.52c-12.5,0.937-22.209,5.138-26.012,11.306
			c-0.591,1.046-14.342,25.777-2.999,40.164c0.379,0.482,0.958,0.763,1.57,0.763h63.215c0.612,0,1.191-0.28,1.57-0.763
			C93.237,81.799,78.861,56.389,78.683,56.08z M52.241,81.893c-0.007,0.233-0.066,0.463-0.179,0.67l-2.179,4.053
			c-0.262,0.486-0.771,0.791-1.321,0.791s-1.06-0.305-1.32-0.791l-2.18-4.053c-0.11-0.207-0.172-0.437-0.178-0.67l-0.772-29.066
			c-0.014-0.493,0.218-0.961,0.614-1.252l2.95-2.153c0.527-0.385,1.241-0.385,1.769,0l2.952,2.153
			c0.398,0.291,0.629,0.759,0.615,1.252L52.241,81.893z"/>
		<path d="M48.214,42.398c11.688,0,21.198-9.511,21.198-21.2C69.412,9.51,59.901,0,48.214,0c-11.689,0-21.2,9.51-21.2,21.198
			C27.014,32.887,36.524,42.398,48.214,42.398z"/>
	</g>
</g>
<g>
</g>
<g>
</g>
<g>
</g>
<g>
</g>
<g>
</g>
<g>
</g>
<g>
</g>
<g>
</g>
<g>
</g>
<g>
</g>
<g>
</g>
<g>
</g>
<g>
</g>
<g>
</g>
<g>
</g>
</svg>
